# xmcd CD database file
#
# Track frame offsets:
#	150
#	18800
#	34965
#	43471
#	61986
#	78128
#
# Disc length: 1152 seconds
#
# Revision: 0
# Processed by: cddbd v1.5.1PL2 Copyright (c) Steve Scherf et al.
# Submitted via: CDex 1.51
#
DISCID=44047e06
DTITLE=佐藤裕美 - Sugar season vol.3 秋月
DYEAR=2005
DGENRE=Pop
TTITLE0=秋月
TTITLE1=FLY!!!
TTITLE2=いのりうた
TTITLE3=秋月(off vocal version)
TTITLE4=FLY!!!(off vocal version)
TTITLE5=いのりうた(off vocal version)
EXTD=YEAR: 2005/10/26
EXTT0=
EXTT1=
EXTT2=
EXTT3=
EXTT4=
EXTT5=
PLAYORDER=
